<?xml version="1.0" encoding="utf-8"?>
<!-- Generator: Adobe Illustrator 18.0.0, SVG Export Plug-In . SVG Version: 6.00 Build 0)  -->
<!DOCTYPE svg PUBLIC "-//W3C//DTD SVG 1.1//EN" "http://www.w3.org/Graphics/SVG/1.1/DTD/svg11.dtd">
<svg version="1.1" id="Ebene_1" xmlns="http://www.w3.org/2000/svg" xmlns:xlink="http://www.w3.org/1999/xlink" x="0px" y="0px"
	 width="168px" height="68px" viewBox="0 0 168 68" enable-background="new 0 0 168 68" xml:space="preserve">
<g>
	<g>
		<linearGradient id="SVGID_1_" gradientUnits="userSpaceOnUse" x1="1.145327e-008" y1="27.1696" x2="168" y2="27.1696">
			<stop  offset="5.618000e-003" style="stop-color:#FFD400"/>
			<stop  offset="0.2673" style="stop-color:#FFD402"/>
			<stop  offset="0.3616" style="stop-color:#FFD509"/>
			<stop  offset="0.4288" style="stop-color:#FFD714"/>
			<stop  offset="0.4831" style="stop-color:#FFDA25"/>
			<stop  offset="0.5297" style="stop-color:#FFDE3B"/>
			<stop  offset="0.5709" style="stop-color:#FFE357"/>
			<stop  offset="0.6082" style="stop-color:#FFE877"/>
			<stop  offset="0.6425" style="stop-color:#FFEE9D"/>
			<stop  offset="0.6744" style="stop-color:#FFF6C8"/>
			<stop  offset="0.7027" style="stop-color:#FFFDF6"/>
			<stop  offset="0.7079" style="stop-color:#FFFFFF"/>
		</linearGradient>
		<rect y="0" fill="url(#SVGID_1_)" width="168" height="54.3"/>
		<g>
			<path fill="#1D1D1B" stroke="#1F272B" stroke-width="0.25" stroke-linecap="round" stroke-linejoin="round" d="M39.7,5.2v2.3
				L27.2,7c0,0,0-0.7-0.7-0.7c-0.7,0-1,0.5-1,0.5L6.6,6.1L39.7,5.2z"/>
			<polygon fill="#1D1D1B" stroke="#1F272B" stroke-width="0.25" stroke-linecap="round" stroke-linejoin="round" points="39.7,8 
				39.7,10.4 28.2,10 27.5,8.3 			"/>
			<polygon fill="#1D1D1B" stroke="#1F272B" stroke-width="0.25" stroke-linecap="round" stroke-linejoin="round" points="18.6,8.7 
				19,9.6 6.3,8.8 			"/>
			<path fill="#1D1D1B" stroke="#1F272B" stroke-width="0.25" stroke-linecap="round" stroke-linejoin="round" d="M22.9,8.3
				c0,0,3.2-0.1,3.3,0.2c0.1,0.3,0.5,0.9,0.1,1c-0.4,0.1-2.6,0.1-2.9-0.1C23.2,9.3,22.9,8.6,22.9,8.3z"/>
			<path fill="#1D1D1B" stroke="#1F272B" stroke-width="0.25" stroke-linecap="round" stroke-linejoin="round" d="M39.7,11.1v2.3
				l-7.5-0.3c0,0-0.8-1.2-1.3-1.4c-0.5-0.2-1.1-0.4-1.1-0.4L39.7,11.1z"/>
			<polygon fill="#1D1D1B" stroke="#1F272B" stroke-width="0.25" stroke-linecap="round" stroke-linejoin="round" points="
				39.7,14.1 39.7,16.3 33.4,16.1 32.9,14.1 			"/>
			<path fill="#1D1D1B" stroke="#1F272B" stroke-width="0.25" stroke-linecap="round" stroke-linejoin="round" d="M39.7,16.8V19
				h-4.4c0,0-1.3-1.9-1.7-2.2L39.7,16.8z"/>
			<path fill="#1D1D1B" stroke="#1F272B" stroke-width="0.25" stroke-linecap="round" stroke-linejoin="round" d="M6.2,11.9
				l13.4-0.5c0,0,0.5,0.8,0.4,1C19.9,12.8,6.2,11.9,6.2,11.9z"/>
			<path fill="#1D1D1B" stroke="#1F272B" stroke-width="0.25" stroke-linecap="round" stroke-linejoin="round" d="M6.2,14.7l13-0.2
				c0,0-0.1,0.5-0.4,0.7C18.6,15.4,6.2,14.7,6.2,14.7z"/>
			<polygon fill="#1D1D1B" stroke="#1F272B" stroke-width="0.25" stroke-linecap="round" stroke-linejoin="round" points="6.3,17.4 
				17.4,17.1 16.8,17.9 			"/>
			<polygon fill="#1D1D1B" stroke="#1F272B" stroke-width="0.25" stroke-linecap="round" stroke-linejoin="round" points="6.4,20.6 
				14.9,20.5 14.6,21 			"/>
			<polygon fill="#1D1D1B" stroke="#1F272B" stroke-width="0.25" stroke-linecap="round" stroke-linejoin="round" points="8.2,23.8 
				13,23.3 12.8,23.8 			"/>
			<polygon fill="#1D1D1B" stroke="#1F272B" stroke-width="0.25" stroke-linecap="round" stroke-linejoin="round" points="5.9,26.7 
				10.7,26.4 10.4,26.8 			"/>
			<polygon fill="#1D1D1B" stroke="#1F272B" stroke-width="0.25" stroke-linecap="round" stroke-linejoin="round" points="6.4,29.6 
				7.9,29.4 7.9,29.7 			"/>
			<polygon fill="#1D1D1B" stroke="#1F272B" stroke-width="0.25" stroke-linecap="round" stroke-linejoin="round" points="20.2,8.5 
				21.1,8.5 21.2,9 20.9,9.1 			"/>
			<path fill="#1D1D1B" stroke="#1F272B" stroke-width="0.25" stroke-linecap="round" stroke-linejoin="round" d="M35.6,19.9h4.1
				v2.3h-2.5C36.9,21.2,35.6,19.9,35.6,19.9z"/>
			<path fill="#1D1D1B" stroke="#1F272B" stroke-width="0.25" stroke-linecap="round" stroke-linejoin="round" d="M24.7,21.5
				c0,0,0.6-0.7,0.9-0.7c1,0.1,1.4,0.6,1.5,0.9L24.7,21.5z"/>
			<path fill="#1D1D1B" stroke="#1F272B" stroke-width="0.25" stroke-linecap="round" stroke-linejoin="round" d="M22.7,23.2
				c0,0-0.4,0.8-0.4,1.1c0,0.2,4.4,0.1,7,0.3c0.8,0.1,1.3,0.3,1.4,0.4c0.9,0.2,3.5-0.1,3.5-0.1l-1.1-1.1l-2.3-0.1l-0.6-0.6
				L22.7,23.2z"/>
			<path fill="#1D1D1B" stroke="#1F272B" stroke-width="0.25" stroke-linecap="round" stroke-linejoin="round" d="M37.8,22.9h1.9
				v2.3h-1.2c0,0,0-0.4-0.3-1.1C38.1,23.6,37.8,22.9,37.8,22.9z"/>
			<path fill="#1D1D1B" stroke="#1F272B" stroke-width="0.25" stroke-linecap="round" stroke-linejoin="round" d="M21.3,26.1
				l13.2-0.2c0,0,1.4,1.1,2.4,1.1c1.1-0.1,0.9-0.1,1.1-0.3c0.3-0.3,0.4-0.9,0.4-0.9h1.2v2.4l-19-0.8L21.3,26.1z"/>
			<polygon fill="#1D1D1B" stroke="#1F272B" stroke-width="0.25" stroke-linecap="round" stroke-linejoin="round" points="
				39.7,28.8 39.7,31.1 19.4,30.2 19.5,29.1 			"/>
			<polygon fill="#1D1D1B" stroke="#1F272B" stroke-width="0.25" stroke-linecap="round" stroke-linejoin="round" points="
				39.7,31.7 39.7,33.6 18.1,32.8 18.3,32.1 			"/>
			<polygon fill="#1D1D1B" stroke="#1F272B" stroke-width="0.25" stroke-linecap="round" stroke-linejoin="round" points="
				39.7,34.5 39.7,36.9 16.6,36 16.8,35.2 			"/>
			<polygon fill="#1D1D1B" stroke="#1F272B" stroke-width="0.25" stroke-linecap="round" stroke-linejoin="round" points="
				39.7,37.5 39.7,39.7 14.9,38.9 15.2,38.2 			"/>
			<polygon fill="#1D1D1B" stroke="#1F272B" stroke-width="0.25" stroke-linecap="round" stroke-linejoin="round" points="
				39.7,40.7 39.7,42.7 13.1,41.6 13.4,41 			"/>
			<polygon fill="#1D1D1B" stroke="#1F272B" stroke-width="0.25" stroke-linecap="round" stroke-linejoin="round" points="
				39.7,43.6 39.7,45.7 11.4,44.4 11.4,44.1 			"/>
			<polygon fill="#1D1D1B" stroke="#1F272B" stroke-width="0.25" stroke-linecap="round" stroke-linejoin="round" points="
				39.7,46.2 39.7,49 9.6,47.5 9.9,46.8 			"/>
		</g>
		<g>
			<path fill="#1D1D1B" d="M52.4,19.2h-2.6l0.7-3.1c0.6-0.3,1.2-0.8,1.9-1.3c0.7-0.5,1.4-1,2.1-1.6c0.7-0.5,1.3-1.1,1.9-1.6
				c0.6-0.5,1-0.9,1.3-1.2h4.1l-0.8,2.8h6.2l-1.5,5.9h-6.1l-0.8,3.3c-0.1,0.2-0.1,0.5-0.2,0.9c-0.1,0.3-0.1,0.6-0.1,0.8
				c0,0.7,0.7,1,2,1c0.7,0,1.3-0.1,1.9-0.2c0.6-0.1,1.1-0.2,1.7-0.3l-1.9,4.2c-0.5,0.1-1.1,0.2-1.6,0.3c-0.6,0.1-1.2,0.2-1.8,0.2
				c-0.6,0.1-1.2,0.1-1.8,0.2c-0.6,0-1.1,0.1-1.6,0.1c-0.4,0-0.9,0-1.4-0.1c-0.5,0-1-0.1-1.5-0.3s-0.9-0.4-1.2-0.7
				c-0.3-0.3-0.5-0.7-0.5-1.3c0-0.7,0.1-1.5,0.3-2.4L52.4,19.2z"/>
			<path fill="#1D1D1B" d="M68.3,13.3h7l-0.5,10.6h0l4.1-10.6h5.9l-0.2,10.6h0l3.8-10.6H96l-7.2,15.8h-8.4l0.1-9.4h0l-3.7,9.4h-8.4
				L68.3,13.3z"/>
			<path fill="#1D1D1B" d="M97.5,13.1c0.4,0.1,1,0.1,1.6,0.2s1.3,0.1,2,0.1h0c0.8,0,1.5,0,2-0.1c0.5,0,1-0.1,1.5-0.2l-4,16h-7.2
				L97.5,13.1z M104.4,8.4c0.9,0,1.3,0.2,1.3,0.5c0,0.1,0,0.2,0,0.3c0,0.2-0.1,0.4-0.1,0.6c0,0.2-0.1,0.4-0.2,0.7s-0.1,0.4-0.2,0.6
				c-0.1,0.4-0.5,0.6-1,0.7c-0.6,0.1-1.4,0.1-2.5,0.1h-1.1c-0.9,0-1.6,0-2-0.1c-0.5-0.1-0.7-0.2-0.7-0.5c0-0.2,0-0.4,0.1-0.8
				c0.1-0.3,0.1-0.6,0.2-0.9c0.1-0.3,0.2-0.5,0.3-0.6c0.1-0.2,0.2-0.3,0.4-0.4c0.2-0.1,0.5-0.2,0.8-0.2c0.4,0,0.9,0,1.5,0H104.4z"/>
			<path fill="#1D1D1B" d="M121.7,28.2c-0.2,0.7-0.5,1.4-0.9,1.9c-0.4,0.5-0.9,1-1.5,1.3s-1.2,0.6-1.9,0.8c-0.7,0.2-1.3,0.4-2,0.5
				s-1.3,0.2-2,0.2s-1.2,0-1.7,0c-2.9,0-5.6-0.4-8.3-1.2l0.8-3.2c1,0.3,2,0.6,2.9,0.7c1,0.1,2,0.2,3,0.2c0.7,0,1.3-0.1,1.9-0.2
				c0.6-0.1,1.1-0.4,1.6-0.7c0.5-0.3,0.8-0.8,1.2-1.4c0.3-0.6,0.5-1.3,0.7-2.3h0c-0.6,0.9-1.4,1.6-2.3,2c-0.9,0.5-1.9,0.7-3,0.7
				c-0.7,0-1.5-0.1-2.2-0.2c-0.7-0.1-1.3-0.4-1.9-0.7c-0.6-0.3-1-0.8-1.3-1.4c-0.3-0.6-0.5-1.4-0.5-2.3c0-0.3,0.1-0.7,0.2-1.4
				c0.1-0.6,0.3-1.3,0.5-2.1s0.4-1.5,0.7-2.2c0.3-0.7,0.6-1.4,1-1.9c0.4-0.6,0.8-1,1.3-1.4s0.9-0.6,1.3-0.8c0.5-0.2,0.9-0.4,1.5-0.4
				c0.5-0.1,1.1-0.1,1.7-0.1c0.6,0,1.3,0,1.9,0.1c0.6,0.1,1.2,0.3,1.7,0.6c0.5,0.3,0.9,0.7,1.2,1.3c0.3,0.5,0.5,1.3,0.5,2.2h0
				l0.8-3.6h7.2L121.7,28.2z M111.6,22.4c0,0.6,0.2,0.9,0.5,1.1c0.3,0.2,0.7,0.3,1.1,0.3c0.6,0,1.1-0.1,1.5-0.4
				c0.4-0.2,0.8-0.6,1-0.9c0.3-0.4,0.5-0.8,0.6-1.3c0.1-0.5,0.2-0.9,0.2-1.4c0-0.3-0.1-0.6-0.2-0.8c-0.1-0.2-0.3-0.4-0.5-0.5
				c-0.2-0.1-0.4-0.2-0.7-0.2c-0.2,0-0.5-0.1-0.7-0.1c-0.6,0-1,0.1-1.4,0.4s-0.7,0.6-0.9,1s-0.4,0.9-0.5,1.4
				C111.6,21.5,111.6,22,111.6,22.4z"/>
			<path fill="#1D1D1B" d="M136,25.9L136,25.9c-0.7,1.3-1.6,2.3-2.6,2.8c-1.1,0.6-2.3,0.9-3.6,0.9c-0.7,0-1.3-0.1-1.9-0.2
				c-0.6-0.2-1.1-0.4-1.6-0.8s-0.8-0.8-1.1-1.4c-0.3-0.6-0.4-1.2-0.4-2.1c0-1.3,0.2-2.6,0.5-3.8c0.3-1.2,0.7-2.4,1-3.5
				c0.6-1.8,1.5-3.1,2.7-3.9c1.2-0.8,2.7-1.3,4.4-1.3c0.8,0,1.5,0.1,2.1,0.2s1.1,0.4,1.5,0.7s0.7,0.7,1,1.3c0.2,0.5,0.4,1.2,0.4,2h0
				l0.9-3.5h7.2l-4.1,15.8h-7.2L136,25.9z M135.5,19c-0.5,0-0.9,0.1-1.3,0.2s-0.6,0.3-0.9,0.6c-0.2,0.3-0.4,0.6-0.6,0.9
				c-0.2,0.4-0.3,0.8-0.5,1.3c-0.1,0.2-0.1,0.4-0.2,0.6c0,0.2-0.1,0.4-0.1,0.6c0,0.6,0.2,1,0.5,1.3c0.4,0.2,0.8,0.3,1.3,0.3
				c0.9,0,1.6-0.3,2-0.8c0.5-0.5,0.8-1.2,1-2c0-0.2,0.1-0.5,0.1-0.7s0.1-0.5,0.1-0.8c0-0.3-0.1-0.5-0.2-0.7s-0.2-0.3-0.4-0.5
				c-0.2-0.1-0.4-0.2-0.6-0.2C135.9,19,135.7,19,135.5,19z"/>
		</g>
		<g>
			<path fill="#CAC9C9" d="M58,47c-1.1,0.2-2.1,0.4-3.2,0.5c-1.1,0.1-2.2,0.1-3.3,0.1c-0.7,0-1.3,0-1.8-0.1s-1.1-0.2-1.5-0.5
				s-0.7-0.6-1-1.1s-0.4-1.1-0.4-2c0-0.5,0-1,0.1-1.5c0.1-0.5,0.2-1.1,0.3-1.6s0.3-1,0.5-1.5c0.2-0.5,0.4-0.9,0.6-1.2
				c0.4-0.6,0.7-1.1,1.1-1.5c0.4-0.4,0.8-0.7,1.3-0.9c0.5-0.2,1-0.4,1.6-0.5c0.6-0.1,1.3-0.1,2-0.1c1.2,0,2.3,0.1,3.3,0.2
				c1,0.1,2.1,0.3,3.1,0.5l-1.2,4.2c-0.6-0.1-1.2-0.2-1.9-0.3c-0.6-0.1-1.3-0.1-2-0.1c-0.7,0-1.3,0.1-1.7,0.3
				c-0.4,0.2-0.8,0.5-1,0.8c-0.2,0.3-0.4,0.6-0.4,0.9c-0.1,0.3-0.1,0.5-0.1,0.6c0,0.3,0,0.6,0.1,0.8s0.2,0.4,0.4,0.5
				s0.4,0.2,0.7,0.3c0.3,0,0.6,0.1,1,0.1c0.7,0,1.4-0.1,2-0.2c0.7-0.1,1.4-0.2,2-0.3L58,47z"/>
			<path fill="#CAC9C9" d="M66.2,42.6c0,0.1-0.1,0.2-0.1,0.3c0,0.1,0,0.2,0,0.3c0,0.3,0.1,0.6,0.3,0.7c0.2,0.2,0.4,0.3,0.7,0.4
				c0.3,0.1,0.6,0.1,0.9,0.2c0.3,0,0.6,0,0.9,0c0.9,0,1.8-0.1,2.6-0.3c0.9-0.2,1.7-0.3,2.5-0.5l-1.5,3.1c-1,0.3-2,0.5-3.1,0.6
				c-1,0.1-2.1,0.2-3.2,0.2c-0.6,0-1.3,0-2-0.1c-0.7-0.1-1.3-0.2-1.9-0.5c-0.6-0.2-1-0.6-1.4-1.1c-0.4-0.5-0.5-1.2-0.5-2
				c0-0.6,0.1-1.3,0.2-1.9c0.1-0.7,0.3-1.3,0.5-1.9c0.2-0.6,0.4-1.2,0.7-1.7c0.3-0.5,0.5-0.9,0.8-1.2c0.4-0.5,0.9-0.9,1.3-1.2
				c0.5-0.3,1-0.5,1.5-0.6c0.5-0.1,1-0.2,1.6-0.3s1.1,0,1.8,0c1.3,0,2.3,0.1,3.2,0.2c0.9,0.1,1.6,0.3,2.2,0.7c0.6,0.3,1,0.7,1.2,1.2
				s0.4,1.2,0.4,2c0,0.2,0,0.4-0.1,0.7c-0.1,0.3-0.1,0.6-0.2,0.9c-0.1,0.3-0.2,0.7-0.3,1c-0.1,0.3-0.2,0.6-0.3,0.8H66.2z M70.9,40.1
				c0-0.2,0-0.3,0.1-0.5c0-0.1,0-0.3,0-0.4c0-0.2,0-0.4-0.1-0.5c-0.1-0.1-0.2-0.3-0.4-0.3c-0.2-0.1-0.3-0.1-0.5-0.2s-0.3,0-0.4,0
				c-0.3,0-0.6,0-0.9,0.1c-0.3,0.1-0.5,0.2-0.7,0.3s-0.4,0.4-0.6,0.6c-0.2,0.3-0.3,0.6-0.5,1H70.9z"/>
			<path fill="#CAC9C9" d="M78.6,35.5H84l-0.8,2.8h0c0.5-1,1.1-1.8,1.9-2.4s1.7-0.8,2.9-0.8c0.6,0,1.1,0,1.5,0.1
				c0.4,0.1,0.8,0.3,1,0.5c0.3,0.2,0.5,0.6,0.6,1c0.1,0.4,0.2,0.9,0.2,1.6h0c0.4-1,1-1.8,1.8-2.3c0.8-0.5,1.7-0.8,2.9-0.8
				c0.5,0,0.9,0.1,1.3,0.2c0.4,0.1,0.8,0.3,1.1,0.5s0.6,0.5,0.7,0.8s0.3,0.7,0.3,1.1c0,0.3,0,0.7-0.1,1.1c-0.1,0.4-0.2,0.8-0.3,1.1
				l-1.9,7.4h-5.5l1.2-4.2c0.1-0.3,0.2-0.6,0.3-1c0.1-0.3,0.1-0.6,0.1-0.8c0-0.2,0-0.3-0.1-0.4c-0.1-0.1-0.2-0.2-0.3-0.3
				c-0.1-0.1-0.2-0.1-0.4-0.1c-0.1,0-0.3,0-0.4,0c-0.3,0-0.6,0-0.8,0.1s-0.4,0.2-0.5,0.4c-0.1,0.2-0.3,0.4-0.4,0.8
				c-0.1,0.3-0.2,0.7-0.3,1.2L89,47.3h-5.3l1.2-4.2c0.1-0.3,0.2-0.6,0.3-1c0.1-0.3,0.2-0.6,0.2-0.8c0-0.2,0-0.3-0.1-0.4
				c-0.1-0.1-0.2-0.2-0.3-0.3c-0.1-0.1-0.2-0.1-0.4-0.1c-0.1,0-0.3,0-0.4,0c-0.3,0-0.6,0-0.8,0.1s-0.4,0.2-0.5,0.4
				c-0.1,0.2-0.3,0.4-0.4,0.8s-0.2,0.7-0.3,1.2l-1.1,4.4h-5.4L78.6,35.5z"/>
			<path fill="#CAC9C9" d="M105.6,42.6c0,0.1-0.1,0.2-0.1,0.3s0,0.2,0,0.3c0,0.3,0.1,0.6,0.3,0.7c0.2,0.2,0.4,0.3,0.7,0.4
				c0.3,0.1,0.6,0.1,0.9,0.2c0.3,0,0.6,0,0.9,0c0.9,0,1.8-0.1,2.6-0.3c0.9-0.2,1.7-0.3,2.5-0.5l-1.5,3.1c-1,0.3-2,0.5-3.1,0.6
				c-1,0.1-2.1,0.2-3.2,0.2c-0.6,0-1.3,0-2-0.1c-0.7-0.1-1.3-0.2-1.9-0.5s-1-0.6-1.4-1.1c-0.4-0.5-0.5-1.2-0.5-2
				c0-0.6,0.1-1.3,0.2-1.9s0.3-1.3,0.5-1.9c0.2-0.6,0.4-1.2,0.7-1.7c0.3-0.5,0.5-0.9,0.8-1.2c0.4-0.5,0.9-0.9,1.3-1.2
				c0.5-0.3,1-0.5,1.5-0.6c0.5-0.1,1-0.2,1.6-0.3c0.6,0,1.1,0,1.8,0c1.3,0,2.3,0.1,3.2,0.2s1.6,0.3,2.2,0.7s1,0.7,1.2,1.2
				c0.3,0.5,0.4,1.2,0.4,2c0,0.2,0,0.4-0.1,0.7c-0.1,0.3-0.2,0.6-0.2,0.9s-0.2,0.7-0.3,1s-0.2,0.6-0.3,0.8H105.6z M110.3,40.1
				c0-0.2,0-0.3,0.1-0.5s0-0.3,0-0.4c0-0.2-0.1-0.4-0.2-0.5c-0.1-0.1-0.2-0.3-0.4-0.3c-0.2-0.1-0.3-0.1-0.5-0.2c-0.2,0-0.3,0-0.4,0
				c-0.3,0-0.6,0-0.9,0.1c-0.3,0.1-0.5,0.2-0.7,0.3c-0.2,0.1-0.4,0.4-0.6,0.6c-0.2,0.3-0.3,0.6-0.5,1H110.3z"/>
			<path fill="#CAC9C9" d="M118,35.5h5.4l-0.7,2.8h0c0.6-1.1,1.3-1.9,2-2.4c0.8-0.5,1.8-0.8,3-0.8c0.5,0,0.9,0,1.3,0.1
				c0.4,0.1,0.8,0.2,1.1,0.5c0.3,0.2,0.6,0.5,0.8,0.8c0.2,0.3,0.3,0.8,0.3,1.3c0,0.4,0,0.8-0.1,1.2c-0.1,0.4-0.2,0.8-0.3,1.2l-1.9,7
				h-5.7l1-3.5c0-0.2,0.1-0.4,0.2-0.6c0.1-0.2,0.1-0.4,0.2-0.7c0.1-0.2,0.1-0.4,0.1-0.6c0-0.2,0.1-0.3,0.1-0.5
				c0-0.4-0.1-0.6-0.3-0.8c-0.2-0.1-0.5-0.2-0.8-0.2c-0.3,0-0.5,0-0.7,0.1s-0.4,0.2-0.5,0.3c-0.2,0.2-0.3,0.4-0.4,0.6
				c-0.1,0.3-0.2,0.6-0.4,1.1l-1.2,4.7H115L118,35.5z"/>
			<path fill="#CAC9C9" d="M134.2,39.9h-2l0.5-2.3c0.4-0.2,0.9-0.6,1.4-0.9s1.1-0.8,1.6-1.2c0.5-0.4,1-0.8,1.4-1.2
				c0.4-0.4,0.8-0.7,1-0.9h3.2l-0.6,2.1h4.7l-1.2,4.4h-4.7l-0.6,2.4c-0.1,0.2-0.1,0.4-0.2,0.6c-0.1,0.2-0.1,0.4-0.1,0.6
				c0,0.5,0.5,0.7,1.5,0.7c0.5,0,1,0,1.4-0.1c0.4-0.1,0.9-0.2,1.3-0.3l-1.4,3.1c-0.4,0.1-0.8,0.1-1.3,0.2c-0.5,0.1-0.9,0.1-1.4,0.2
				c-0.5,0.1-0.9,0.1-1.4,0.1c-0.5,0-0.9,0-1.3,0c-0.3,0-0.7,0-1.1,0c-0.4,0-0.8-0.1-1.1-0.2c-0.4-0.1-0.7-0.3-0.9-0.5
				s-0.4-0.6-0.4-1c0-0.5,0.1-1.1,0.3-1.8L134.2,39.9z"/>
		</g>
	</g>
	<g>
		<path fill="#1D1D1B" d="M63.8,58.3c-0.1-0.1-0.3-0.1-0.4-0.2c-0.7-0.3-1.4-0.3-1.6-0.3c-1.4,0-2.2,0.7-2.5,1.1
			c-0.5,0.6-0.7,1.3-0.7,2c0,0.9,0.3,1.8,1,2.4c0.8,0.7,1.7,0.7,2,0.7c1,0,1.8-0.4,2.1-0.6l-0.3-0.5c-0.6,0.3-1.1,0.5-1.7,0.5
			c-1.1,0-1.6-0.6-1.9-0.9c-0.5-0.6-0.5-1.3-0.5-1.6c0-0.3,0-1.3,0.8-2c0.6-0.5,1.3-0.6,1.6-0.6c0.7,0,1,0.1,1.3,0.3
			c0.1,0.1,0.3,0.1,0.4,0.2L63.8,58.3L63.8,58.3z"/>
		<polygon fill="#1D1D1B" points="64.6,57.8 64.6,63.9 67.9,63.9 67.9,63.3 65.4,63.3 65.4,61.1 67.8,61.1 67.8,60.4 65.4,60.4 
			65.4,58.4 67.9,58.4 67.9,57.8 64.6,57.8 		"/>
		<path fill="#1D1D1B" d="M69.8,57.8l-1.1,6l0.7,0.1c0.1-0.6,0.2-1.2,0.3-1.8c0.1-0.6,0.2-1.1,0.3-1.7c0.1-0.6,0.2-1.2,0.2-1.8
			c0.1,0.3,0.1,0.6,0.2,0.9c0.1,0.2,0.1,0.4,0.2,0.5c0.2,0.5,0.4,1,0.6,1.6c0.3,0.8,0.5,1.5,0.8,2.3h0.7c0.4-1,0.8-2,1.2-3
			c0.1-0.2,0.1-0.4,0.2-0.6c0.1-0.2,0.2-0.5,0.3-0.7c0.1-0.3,0.2-0.6,0.3-0.9c0,0.7,0.1,1,0.2,2.2c0.2,1,0.3,2.1,0.5,3.1l0.7-0.1
			l-1-6h-0.7c-0.2,0.6-0.4,1.1-0.6,1.7c-0.2,0.4-0.3,0.9-0.5,1.3c-0.2,0.4-0.3,0.8-0.5,1.2c-0.1,0.4-0.3,0.7-0.4,1.1
			c-0.1-0.2-0.1-0.5-0.2-0.7c-0.1-0.3-0.3-0.7-0.4-1l-0.4-1.2c-0.3-0.8-0.6-1.5-0.8-2.3L69.8,57.8L69.8,57.8z"/>
		<polygon fill="#1D1D1B" points="77.1,57.8 77.1,63.9 80.4,63.9 80.4,63.3 77.9,63.3 77.9,61.1 80.3,61.1 80.3,60.4 77.9,60.4 
			77.9,58.4 80.3,58.4 80.3,57.8 77.1,57.8 		"/>
		<path fill="#1D1D1B" d="M81.4,58v5.8h0.7v-3.8c0-0.2,0-0.4,0-0.6c0-0.2,0-0.5-0.1-0.7c0.2,0.4,0.3,0.5,0.7,1.1
			c0.4,0.6,0.8,1.1,1.2,1.7c0.6,0.8,1.2,1.6,1.7,2.4l0.6-0.3v-5.9h-0.7v3.8c0,0.5,0,0.7,0.1,1.2c-0.1-0.2-0.2-0.4-0.3-0.6
			c-0.2-0.3-0.3-0.5-0.5-0.8c-0.4-0.6-0.8-1.1-1.2-1.6c-0.5-0.7-1-1.4-1.6-2.1L81.4,58L81.4,58z"/>
		<polygon fill="#1D1D1B" points="87,57.8 87,58.4 88.9,58.4 88.9,63.9 89.7,63.9 89.7,58.4 91.6,58.4 91.6,57.8 87,57.8 		"/>
		<path fill="#1D1D1B" d="M97.7,58.2c-0.3-0.1-0.9-0.4-1.7-0.4c-0.9,0-1.8,0.3-2.4,0.9c-0.8,0.8-0.9,1.8-0.9,2.2
			c0,0.5,0.1,1.8,1.3,2.6c0.7,0.5,1.5,0.5,1.8,0.5c0.7,0,1.3-0.2,1.6-0.2c0.2-0.1,0.3-0.1,0.5-0.2v-2.9h-0.7v2.5
			c-0.2,0.1-0.6,0.2-1.3,0.2c-0.5,0-0.8-0.1-1-0.2c-0.4-0.1-0.6-0.3-0.7-0.5c-0.7-0.7-0.7-1.5-0.7-1.8c0-1,0.5-2,1.5-2.4
			c0.4-0.2,0.9-0.2,1-0.2c0.6,0,1,0.2,1.5,0.4L97.7,58.2L97.7,58.2z"/>
		<path fill-rule="evenodd" clip-rule="evenodd" fill="#1D1D1B" d="M98.8,59.5v4.4h0.7V61c0.1-0.1,0.2-0.5,0.6-0.7
			c0.3-0.2,0.5-0.2,0.7-0.2l0.2-0.7c-0.2,0-0.2,0-0.3,0c-0.4,0-0.7,0.2-0.9,0.5c-0.1,0.1-0.2,0.3-0.3,0.4v-0.9H98.8L98.8,59.5z"/>
		<path fill-rule="evenodd" clip-rule="evenodd" fill="#1D1D1B" d="M101.1,61.7c0,0.9,0.4,1.5,0.7,1.7c0.5,0.5,1.1,0.5,1.4,0.5
			c0.3,0,1.1-0.1,1.6-0.7c0.5-0.6,0.5-1.4,0.5-1.6c0-0.4-0.1-1.6-1.2-2c-0.4-0.2-0.7-0.2-0.8-0.2c-0.5,0-0.9,0.2-1,0.3
			C101.2,60.2,101.1,61.3,101.1,61.7L101.1,61.7z M101.8,61.7c0-0.9,0.4-1.4,0.7-1.6c0.3-0.2,0.6-0.2,0.7-0.2c0.3,0,0.5,0.1,0.6,0.2
			c0.5,0.3,0.7,0.9,0.7,1.5c0,0.2,0,0.4,0,0.4c-0.1,0.8-0.5,1.2-0.8,1.3c-0.2,0.1-0.4,0.1-0.5,0.1c-0.1,0-0.4,0-0.8-0.3
			C102.1,63,101.8,62.5,101.8,61.7L101.8,61.7z"/>
		<path fill-rule="evenodd" clip-rule="evenodd" fill="#1D1D1B" d="M106.1,59.5v3.2c0,0.4,0,0.5,0.1,0.7c0.2,0.4,0.7,0.6,1.1,0.6
			c0.6,0,1-0.4,1.2-0.5c0.1-0.1,0.2-0.2,0.3-0.3v0.7h0.7v-4.4h-0.7v3.1c-0.4,0.4-0.6,0.6-0.9,0.7c-0.2,0.1-0.3,0.1-0.4,0.1
			c-0.2,0-0.3-0.1-0.4-0.1c-0.3-0.2-0.3-0.4-0.3-0.8v-3H106.1L106.1,59.5z"/>
		<path fill-rule="evenodd" clip-rule="evenodd" fill="#1D1D1B" d="M110.5,59.5v6.4h0.7c0-0.4,0-0.8,0-1.1c0-0.4,0-0.9,0-1.3
			c0.2,0.2,0.5,0.5,1.2,0.5c0.9,0,1.6-0.7,1.8-1.5c0.1-0.4,0.1-0.7,0.1-0.9c0-0.8-0.4-1.4-0.6-1.7c-0.3-0.3-0.8-0.5-1.2-0.5
			c-0.6,0-1,0.3-1.1,0.4c-0.1,0.1-0.2,0.2-0.3,0.3l0-0.7H110.5L110.5,59.5z M111.2,60.8c0.2-0.3,0.4-0.6,0.8-0.7
			c0.2-0.1,0.4-0.1,0.4-0.1c0.2,0,0.4,0.1,0.5,0.1c0.1,0,0.2,0.1,0.3,0.3c0.4,0.4,0.4,1.1,0.4,1.2c0,0.7-0.3,1.1-0.4,1.3
			c-0.3,0.4-0.7,0.5-1,0.5c-0.4,0-0.6-0.2-0.9-0.4c-0.1-0.1-0.1-0.1-0.2-0.2V60.8L111.2,60.8z"/>
		<path fill-rule="evenodd" clip-rule="evenodd" fill="#1D1D1B" d="M52.1,63.8l-1.1-1.9c-0.2-0.3-0.4-0.6-0.6-0.7
			c-0.1,0-0.1-0.1-0.2-0.1c0.1,0,0.2,0,0.3-0.1c0.2,0,0.3-0.1,0.4-0.1c0.2-0.1,0.3-0.2,0.4-0.4c0.2-0.3,0.3-0.7,0.3-1.1
			c0-0.5-0.2-0.8-0.3-1c-0.5-0.7-1.3-0.8-2.1-0.8c-0.5,0-1.1,0-1.6,0h-0.7v6.1h1.5v-2.3l0.2,0c0.1,0,0.2,0,0.3,0.1
			c0.1,0.1,0.3,0.3,0.4,0.6l0.8,1.6H52.1L52.1,63.8z M48.6,60.4v-1.4h0.7c0.1,0,0.3,0,0.4,0c0.5,0.1,0.5,0.5,0.5,0.7
			c0,0.2-0.1,0.4-0.2,0.5c-0.2,0.2-0.4,0.2-0.7,0.3c-0.1,0-0.2,0-0.2,0H48.6L48.6,60.4z"/>
		<path fill="#1D1D1B" d="M56.2,62.6v-2h1.5l-0.1,2.9c-0.2,0.1-0.5,0.1-0.7,0.2c-0.1,0-0.4,0.1-0.8,0.1c-0.2,0-0.5,0.1-0.8,0.1
			c0,0,0,0,0,0c-0.8,0-1.5-0.2-2.2-0.7c-0.4-0.3-1.1-1-1.1-2.3c0-0.3,0-1.1,0.6-1.9c0.1-0.1,0.4-0.5,0.8-0.8
			c0.4-0.2,0.9-0.5,1.9-0.5c1,0,1.6,0.2,2,0.4l-0.4,1.1c-0.1,0-0.3-0.1-0.4-0.1c-0.3-0.1-0.7-0.2-1-0.2c-0.1,0-0.5,0-0.9,0.2
			c-1,0.5-1.1,1.5-1.1,1.8c0,0.1,0,0.4,0.1,0.7c0.3,0.8,1.1,1,1.5,1.1c0.1,0,0.1,0,0.2,0C55.9,62.7,56.1,62.6,56.2,62.6L56.2,62.6z"
			/>
		<polygon fill="#1D1D1B" points="46.2,60.2 43.6,60.2 43.6,59 46.2,59 46.2,57.8 42,57.8 42,63.8 46.2,63.8 46.2,62.6 43.6,62.6 
			43.6,61.4 46.2,61.4 46.2,60.2 		"/>
		<polygon fill="#1D1D1B" points="30.6,60.2 28,60.2 28,59 30.6,59 30.6,57.8 26.5,57.8 26.5,63.8 30.6,63.8 30.6,62.6 28,62.6 
			28,61.4 30.6,61.4 30.6,60.2 		"/>
		<polygon fill="#1D1D1B" points="33.1,57.8 31.6,57.8 31.6,63.8 35.8,63.8 35.8,62.5 33.1,62.5 33.1,57.8 		"/>
		<path fill-rule="evenodd" clip-rule="evenodd" fill="#1D1D1B" d="M21.4,63.8h-1.6v-6h1h0.8c0.3,0,0.6,0,0.8,0c0.2,0,0.4,0,0.5,0
			c0.3,0,1,0.1,1.7,0.6c0.4,0.3,1.1,1,1.1,2.4c0,0.2,0,0.6-0.2,1.1c-0.3,0.9-1,1.6-1.9,1.8c-0.3,0.1-0.7,0.2-1.3,0.2h-0.2L21.4,63.8
			L21.4,63.8z M22.1,62.6c0.6,0,1.1-0.1,1.5-0.6c0.2-0.2,0.4-0.6,0.4-1.2c0-0.5-0.2-0.9-0.3-1c-0.4-0.6-1-0.7-1.8-0.7
			c-0.2,0-0.5,0-0.7,0v3.6L22.1,62.6L22.1,62.6z"/>
		<path fill-rule="evenodd" clip-rule="evenodd" fill="#1D1D1B" d="M38.1,63.8h-1.5v-6h2.1h0.4c0.9,0,1.3,0.1,1.6,0.4
			c0.2,0.2,0.5,0.5,0.5,1.2c0,0.1,0,0.2,0,0.3c0,0.2-0.1,0.6-0.5,0.9c-0.1,0.1-0.3,0.2-0.4,0.2c0.1,0.1,0.5,0.2,0.7,0.5
			c0.2,0.3,0.3,0.6,0.3,0.9c0,0.8-0.5,1.2-0.8,1.4c-0.4,0.2-0.8,0.3-1.6,0.2L38.1,63.8L38.1,63.8z M38.9,62.7c0.2,0,0.3,0,0.4-0.1
			c0.1-0.1,0.4-0.2,0.4-0.6c0-0.1,0-0.2-0.1-0.4c-0.2-0.3-0.5-0.3-0.8-0.3h-0.7v1.3L38.9,62.7L38.9,62.7z M38.1,60.2h0.8
			c0.4,0,0.6-0.1,0.7-0.3c0-0.1,0.1-0.2,0.1-0.4c0-0.1,0-0.3-0.1-0.4c-0.2-0.2-0.5-0.2-0.7-0.2h-0.7V60.2L38.1,60.2z"/>
		<polygon fill="#1D1D1B" points="16.3,60.2 13.7,60.2 13.7,59 16.3,59 16.3,57.8 12.2,57.8 12.2,63.8 16.3,63.8 16.3,62.6 
			13.7,62.6 13.7,61.4 16.3,61.4 16.3,60.2 		"/>
		<polygon fill="#1D1D1B" points="18.8,57.8 17.2,57.8 17.2,63.8 18.8,63.8 18.8,57.8 		"/>
		<polygon fill="#1D1D1B" points="7.6,57.8 6.1,57.8 6.1,59.4 7.6,59.4 7.6,57.8 		"/>
		<polygon fill="#1D1D1B" points="11.2,57.8 9.6,57.8 9.6,60.2 6.1,60.2 6.1,63.8 7.6,63.8 7.6,61.4 9.6,61.4 9.6,63.8 11.2,63.8 
			11.2,57.8 		"/>
	</g>
</g>
</svg>
